HIERARCHY
ROOT hip
{
	OFFSET 0.000000 0.000000 0.000000 
	CHANNELS 6 Xposition Yposition Zposition Xrotation Zrotation Yrotation
	JOINT abdomen
	{
		OFFSET 0.000000 3.402643 0.000000 
		CHANNELS 3 Xrotation Zrotation Yrotation
		JOINT chest
		{
			OFFSET 0.000000 8.438565 -0.680529 
			CHANNELS 3 Xrotation Zrotation Yrotation
			JOINT neck
			{
				OFFSET 0.000000 10.207942 -0.272212 
				CHANNELS 3 Xrotation Zrotation Yrotation
				JOINT head
				{
					OFFSET 0.000000 3.130431 0.000000 
					CHANNELS 3 Xrotation Zrotation Yrotation
					End Site
					{
						OFFSET 0.000000 3.130435 0.000000 
					}
				}
			}
			JOINT lCollar
			{
				OFFSET 3.470700 6.669187 -0.816635 
				CHANNELS 3 Yrotation Zrotation Xrotation
				JOINT lShldr
				{
					OFFSET 3.198488 0.000000 0.000000 
					CHANNELS 3 Zrotation Yrotation Xrotation
					JOINT lForeArm
					{
						OFFSET 10.139888 0.000000 0.000000 
						CHANNELS 3 Yrotation Zrotation Xrotation
						JOINT lHand
						{
							OFFSET 8.370511 0.000000 0.000000 
							CHANNELS 3 Zrotation Yrotation Xrotation
							End Site
							{
								OFFSET 4.083176 0.000000 0.000000 
							}
						}
					}
				}
			}
			JOINT rCollar
			{
				OFFSET -3.470700 6.669187 -0.816635 
				CHANNELS 3 Yrotation Zrotation Xrotation
				JOINT rShldr
				{
					OFFSET -3.198488 0.000000 0.000000 
					CHANNELS 3 Zrotation Yrotation Xrotation
					JOINT rForeArm
					{
						OFFSET -10.139888 0.000000 0.000000 
						CHANNELS 3 Yrotation Zrotation Xrotation
						JOINT rHand
						{
							OFFSET -8.370511 0.000000 0.000000 
							CHANNELS 3 Zrotation Yrotation Xrotation
							End Site
							{
								OFFSET -4.083176 0.000000 0.000000 
							}
						}
					}
				}
			}
		}
	}
	JOINT lThigh
	{
		OFFSET 5.308129 -1.633274 1.361059 
		CHANNELS 3 Xrotation Zrotation Yrotation
		JOINT lShin
		{
			OFFSET -2.041588 -20.007561 0.000000 
			CHANNELS 3 Xrotation Zrotation Yrotation
			JOINT lFoot
			{
				OFFSET 0.000000 -19.190928 -1.224953 
				CHANNELS 3 Xrotation Yrotation Zrotation
				End Site
				{
					OFFSET 0.000000 -2.449906 4.627600 
				}
			}
		}
	}
	JOINT rThigh
	{
		OFFSET -5.308129 -1.633274 1.361059 
		CHANNELS 3 Xrotation Zrotation Yrotation
		JOINT rShin
		{
			OFFSET 2.041588 -20.007561 0.000000 
			CHANNELS 3 Xrotation Zrotation Yrotation
			JOINT rFoot
			{
				OFFSET 0.000000 -19.190928 -1.224953 
				CHANNELS 3 Xrotation Yrotation Zrotation
				End Site
				{
					OFFSET 0.000000 -2.449906 4.627600 
				}
			}
		}
	}
}
MOTION
Frames: 15
Frame Time: 0.016667
5.090685 46.527416 129.839218 0.537127 -0.468729 23.794399 -21.981100 -1.939360 -3.144600 14.241300 2.649860 -1.913940 33.283798 -3.509250 -0.216389 19.286301 2.352390 1.233190 2.000000 -2.000000 0.000000 90.830597 -175.582001 6.552770 28.389000 -0.335123 0.065062 0.079795 -0.096387 -169.597000 -2.000000 2.000000 0.000000 -95.283600 -176.302994 -5.799840 -32.598000 0.330028 0.073658 -0.071642 0.048403 -154.479996 0.645427 2.585294 -23.863142 27.965120 3.812914 1.821764 -9.680585 -8.022688 -3.235829 -33.321823 8.349499 14.973988 56.003273 -1.197542 -3.863647 -19.467010 11.159577 3.005935 
5.129756 46.504475 130.360474 0.712913 -0.449184 24.115400 -22.000900 -1.969860 -3.142550 14.211800 2.678830 -1.918530 33.498699 -3.563220 -0.215612 19.393700 2.341540 1.244780 2.000000 -2.000000 0.000000 90.869499 -175.552002 6.289160 28.037399 -0.335520 0.064323 0.079310 -0.095626 -169.274994 -2.000000 2.000000 0.000000 -95.185898 -176.341995 -5.702090 -32.617500 0.330003 0.073697 -0.071691 0.048560 -154.539001 0.855312 2.639874 -23.941652 28.051678 3.826824 1.814815 -9.586061 -7.850524 -3.252591 -33.684490 8.049872 14.874314 56.072430 -1.192553 -3.877824 -19.282347 11.098136 2.925239 
5.166929 46.481918 130.854767 0.869167 -0.449167 24.407200 -21.992001 -1.999280 -3.109770 14.211800 2.669120 -1.897920 33.626301 -3.617840 -0.224621 19.452200 2.331340 1.254340 2.000000 -2.000000 0.000000 90.957397 -175.513000 6.230660 27.881201 -0.335695 0.063994 0.079105 -0.095302 -169.138000 -2.000000 2.000000 0.000000 -95.088303 -176.410004 -5.623810 -32.617500 0.330003 0.073697 -0.071733 0.048690 -154.587997 0.979961 2.675715 -23.799469 28.397470 3.832323 1.853030 -9.494288 -7.722230 -3.194856 -33.998756 7.773506 14.807056 56.101669 -1.195178 -3.878066 -19.132515 11.077046 2.862390 
5.206955 46.458069 131.324326 0.966829 -0.468683 24.620899 -21.934700 -1.997150 -3.048010 14.241400 2.630450 -1.872730 33.675900 -3.711140 -0.231330 19.461500 2.293560 1.254110 2.000000 -2.000000 0.000000 91.084396 -175.445007 6.318700 27.842100 -0.335738 0.063911 0.079061 -0.095233 -169.108994 -2.000000 2.000000 0.000000 -95.010101 -176.516998 -5.496600 -32.598000 0.330028 0.073658 -0.071758 0.048768 -154.617004 1.066430 2.709698 -23.438866 28.835091 3.814510 1.895308 -9.310253 -7.578561 -3.132731 -34.262421 7.565855 14.721863 56.110996 -1.198943 -3.869992 -18.967300 11.207207 2.852626 
5.254677 46.432930 131.765808 1.015660 -0.497969 24.737200 -21.848301 -1.957720 -2.970490 14.280700 2.591820 -1.827620 33.695900 -3.834930 -0.230429 19.451200 2.256040 1.262860 2.000000 -2.000000 0.000000 91.191803 -175.328003 6.455680 27.861601 -0.335716 0.063952 0.079090 -0.095279 -169.128998 -2.000000 2.000000 0.000000 -95.019897 -176.673004 -5.261850 -32.519901 0.330128 0.073501 -0.071766 0.048794 -154.626999 1.109689 2.686771 -22.882483 29.406364 3.820395 1.913490 -9.112442 -7.411474 -3.048759 -34.378769 7.374942 14.645641 56.052792 -1.201249 -3.883033 -18.820404 11.460538 2.894883 
5.312194 46.407661 132.184845 1.044970 -0.537020 24.775299 -21.752501 -1.898990 -2.869240 14.329800 2.533810 -1.770240 33.754101 -3.957030 -0.210558 19.460600 2.227670 1.274980 2.000000 -2.000000 0.000000 91.269997 -175.201004 6.602440 27.910500 -0.335662 0.064055 0.079134 -0.095348 -169.158005 -2.000000 2.000000 0.000000 -95.088203 -176.876999 -4.939100 -32.383202 0.330303 0.073225 -0.071724 0.048664 -154.578003 1.232860 2.713740 -22.209667 29.910809 3.813835 1.947756 -8.980877 -7.313180 -2.959076 -34.374657 7.194371 14.509799 55.964485 -1.209614 -3.880461 -18.682915 11.843899 2.991357 
5.380427 46.384724 132.581390 1.093810 -0.576067 24.744801 -21.667200 -1.844630 -2.724040 14.359600 2.446570 -1.691110 33.881901 -4.041240 -0.213266 19.509100 2.198810 1.288590 2.000000 -2.000000 0.000000 91.338303 -175.104004 6.758900 28.008101 -0.335553 0.064261 0.079192 -0.095441 -169.197006 -2.000000 2.000000 0.000000 -95.176003 -177.080994 -4.616340 -32.207401 0.330528 0.072871 -0.071650 0.048430 -154.490005 1.394132 2.721883 -21.461668 30.341223 3.764204 1.971697 -9.007950 -7.144681 -2.913891 -34.394760 7.031395 14.344092 55.934750 -1.214861 -3.874563 -18.547642 12.284756 3.109273 
5.457380 46.366154 132.953232 1.201240 -0.624863 24.674299 -21.611401 -1.795770 -2.565420 14.369900 2.310700 -1.597860 34.029800 -4.079860 -0.232537 19.577400 2.188530 1.288590 2.000000 -2.000000 0.000000 91.397003 -175.104004 6.895620 28.183901 -0.335355 0.064631 0.079251 -0.095533 -169.235992 -2.000000 2.000000 0.000000 -95.254097 -177.266006 -4.322930 -32.012100 0.330775 0.072476 -0.071526 0.048038 -154.343994 1.430444 2.619903 -20.634119 30.817366 3.742818 2.002540 -9.167104 -6.951109 -2.908798 -34.418453 6.897955 14.181941 55.934772 -1.212065 -3.873434 -18.490112 12.798311 3.289974 
5.540083 46.354942 133.302597 1.367300 -0.732213 24.582001 -21.594400 -1.725120 -2.404670 14.370500 2.184480 -1.506080 34.148998 -4.096390 -0.264392 19.626101 2.178500 1.278070 2.000000 -2.000000 0.000000 91.426300 -175.192001 6.993090 28.457300 -0.335046 0.065205 0.079383 -0.095741 -169.324005 -2.000000 2.000000 0.000000 -95.361504 -177.432007 -4.049100 -31.855801 0.330972 0.072160 -0.071412 0.047673 -154.207001 1.406837 2.489553 -19.755686 31.295038 3.708884 2.039510 -9.457273 -6.701293 -2.864741 -34.438786 6.839257 14.039983 55.935272 -1.203820 -3.878761 -18.537947 13.296082 3.487598 
5.622809 46.353786 133.634003 1.582230 -0.907857 24.515800 -21.596001 -1.628330 -2.285470 14.380600 2.097140 -1.427900 34.161201 -4.121900 -0.301077 19.625999 2.169090 1.255910 2.000000 -2.000000 0.000000 91.397102 -175.358002 7.012250 28.838200 -0.334610 0.066003 0.079632 -0.096134 -169.490005 -2.000000 2.000000 0.000000 -95.498199 -177.626007 -3.833790 -31.767900 0.331083 0.071981 -0.071291 0.057047 -154.059998 1.176153 2.410102 -18.744463 31.959364 3.680920 2.095812 -9.804441 -6.543408 -2.877350 -34.431610 6.883989 13.923254 55.915367 -1.203908 -3.869901 -18.721706 13.720671 3.696151 
5.700816 46.362427 133.945175 1.807000 -1.142010 24.504801 -21.586901 -1.496450 -2.211760 14.390500 2.077760 -1.376620 34.027000 -4.133950 -0.343617 19.557600 2.169960 1.224030 2.000000 -2.000000 0.000000 91.319000 -175.602997 6.992180 29.355801 -0.334009 0.067082 0.080061 -0.096801 -169.772995 -2.000000 2.000000 0.000000 -95.654503 -177.850998 -3.667240 -31.748400 0.331108 0.071942 -0.071179 0.056681 -153.923996 0.954260 2.395030 -17.582409 32.565464 3.638078 2.138438 -10.116043 -6.397415 -2.817470 -34.399868 7.018076 13.855863 55.906536 -1.191258 -3.883221 -19.044817 14.078911 3.910151 
5.773005 46.378792 134.235001 2.041600 -1.376080 24.569901 -21.557699 -1.369250 -2.178350 14.390300 2.116600 -1.341750 33.736900 -4.086540 -0.399064 19.421000 2.190510 1.175200 2.000000 -2.000000 0.000000 91.240898 -175.925003 7.030530 30.000299 -0.333248 0.068418 0.080793 -0.097923 -170.251999 -2.000000 2.000000 0.000000 -95.801003 -178.104004 -3.578750 -31.797199 0.331046 0.072041 -0.071139 0.056550 -153.875000 0.535220 2.438095 -16.248362 33.218460 3.614261 2.185569 -10.289037 -6.416350 -2.795539 -34.410309 7.181024 13.755517 55.945683 -1.182873 -3.877508 -19.406839 14.299129 4.117731 
5.841352 46.397999 134.501251 2.285980 -1.541740 24.703800 -21.528299 -1.279540 -2.161540 14.341200 2.164950 -1.329300 33.301498 -3.948680 -0.487126 19.216400 2.240220 1.102030 2.000000 -2.000000 0.000000 91.211700 -176.326004 7.166360 30.781601 -0.332305 0.070026 0.081854 -0.099517 -170.934998 -2.000000 2.000000 0.000000 -95.888901 -178.358002 -3.597670 -31.894899 0.330923 0.072239 -0.071162 0.056628 -153.904007 0.153107 2.469397 -14.799589 33.644161 3.590533 2.205022 -10.421250 -6.564782 -2.769442 -34.407307 7.257071 13.649195 56.034317 -1.179239 -3.891952 -19.803055 14.373615 4.255223 
5.908755 46.415661 134.745026 2.540090 -1.629260 24.898199 -21.479300 -1.239900 -2.167040 14.253100 2.213110 -1.328210 32.769199 -3.724090 -0.586178 18.973101 2.318790 1.005200 2.000000 -2.000000 0.000000 91.250900 -176.785004 7.438780 31.670300 -0.331206 0.071839 0.083184 -0.101456 -171.774994 -2.000000 2.000000 0.000000 -95.937698 -178.602005 -3.655680 -32.041401 0.330738 0.072535 -0.071267 0.056968 -154.031006 -0.124470 2.413368 -13.312642 33.774639 3.568539 2.217046 -10.622156 -6.810906 -2.806165 -34.449070 7.202546 13.522297 56.182102 -1.161343 -3.906329 -20.161156 14.294028 4.319174 
5.977854 46.428288 134.967453 2.843020 -1.677620 25.082500 -21.440201 -1.230910 -2.170860 14.135600 2.270840 -1.329510 32.189098 -3.473080 -0.694179 18.710199 2.397740 0.906901 2.000000 -2.000000 0.000000 91.348801 -177.283997 7.818540 32.646801 -0.329965 0.073812 -179.914993 -179.895996 7.316620 -2.000000 2.000000 0.000000 -95.967102 -178.856995 -3.723440 -32.285500 0.330428 0.073028 -0.071412 0.047673 -154.207001 -0.260468 2.286760 -11.926190 33.557636 3.575031 2.211005 -11.023141 -6.944330 -2.890201 -34.702366 7.079400 13.332639 56.496311 -1.129314 -3.917070 -20.397964 14.041262 4.268761 
